<?xml version="1.0" encoding="utf-8"?>
<!-- Generator: Adobe Illustrator 16.0.0, SVG Export Plug-In . SVG Version: 6.00 Build 0)  -->
<!DOCTYPE svg PUBLIC "-//W3C//DTD SVG 1.1//EN" "http://www.w3.org/Graphics/SVG/1.1/DTD/svg11.dtd">
<svg version="1.1" id="Layer_1" xmlns="http://www.w3.org/2000/svg" xmlns:xlink="http://www.w3.org/1999/xlink" x="0px" y="0px"
	 width="12194.081px" height="7679.062px" viewBox="0 0 12194.081 7679.062" enable-background="new 0 0 12194.081 7679.062"
	 xml:space="preserve">
<path fill="#C8C8C8" stroke="#FFFFFF" stroke-miterlimit="10" d="M4085.405,2032.108c-880.04,0-1593.45,713.41-1593.45,1593.45
	s713.41,1593.45,1593.45,1593.45s1593.45-713.41,1593.45-1593.45S4965.444,2032.108,4085.405,2032.108z M4085.405,5059.667
	c-792.04,0-1434.11-642.079-1434.11-1434.109c0-792.04,642.07-1434.11,1434.11-1434.11c792.03,0,1434.11,642.07,1434.11,1434.11
	C5519.515,4417.588,4877.435,5059.667,4085.405,5059.667z"/>
<path fill="#C8C8C8" stroke="#FFFFFF" stroke-miterlimit="10" d="M3465.868,4122.712v-1340.73
	c-59.596-3.824-109.312,0-140.545,9.241c-8.922-19.441,45.894-49.396,140.545-78.078v-258.14h139.586v223.083
	c502.896-104.212,1505.494-109.631,1510.912,759.757c3.506,613.8-1083.867,520.103-1399.052,719.285
	c-342.911,216.072-188.983,673.396-188.983,673.396S3320.864,4402.203,3465.868,4122.712z M3605.454,3973.246
	c147.235-100.066,399.955-220.852,448.715-451.903c98.158-464.649-197.269-657.459-448.715-718.009V3973.246z"/>
</svg>
