<?xml version="1.0" encoding="utf-8"?>
<!-- Generator: Adobe Illustrator 16.0.0, SVG Export Plug-In . SVG Version: 6.00 Build 0)  -->
<!DOCTYPE svg PUBLIC "-//W3C//DTD SVG 1.1//EN" "http://www.w3.org/Graphics/SVG/1.1/DTD/svg11.dtd">
<svg version="1.1" id="Layer_1" xmlns="http://www.w3.org/2000/svg" xmlns:xlink="http://www.w3.org/1999/xlink" x="0px" y="0px"
	 width="12194.081px" height="7679.062px" viewBox="0 0 12194.081 7679.062" enable-background="new 0 0 12194.081 7679.062"
	 xml:space="preserve">
<circle fill="#FFFFFF" stroke="#FFFFFF" stroke-miterlimit="10" cx="5404.347" cy="3145.94" r="1593.453"/>
<path fill="#FFFFFF" stroke="#FFFFFF" stroke-miterlimit="10" d="M5404.347,1711.831c792.037,0,1434.108,642.071,1434.108,1434.107
	c0,792.034-642.071,1434.108-1434.108,1434.108c-792.033,0-1434.105-642.074-1434.105-1434.108
	C3970.24,2353.902,4612.313,1711.831,5404.347,1711.831z"/>
<path fill="#FFFFFF" stroke="#FFFFFF" stroke-miterlimit="10" d="M4784.813,3643.096v-1340.73
	c-59.596-3.824-109.312,0-140.545,9.241c-8.922-19.441,45.894-49.396,140.545-78.078v-258.14h139.586v223.083
	c502.896-104.212,1505.494-109.631,1510.912,759.757c3.506,613.8-1083.867,520.104-1399.052,719.284
	c-342.911,216.073-188.983,673.397-188.983,673.397S4639.81,3922.585,4784.813,3643.096z M4924.399,3493.628
	c147.235-100.066,399.955-220.852,448.715-451.902c98.158-464.649-197.269-657.459-448.715-718.009V3493.628z"/>
</svg>
